<?xml version="1.0" encoding="UTF-8"?><svg id="Layer_1" xmlns="http://www.w3.org/2000/svg" viewBox="0 0 659 235.73"><defs><style>.cls-1{fill-rule:evenodd;}</style></defs><g id="The_Ordinary_Logo"><path id="Union" class="cls-1" d="M88.1,62.24h7.5v-26.63c0-2.62-.24-5.09-.73-7.38-.49-2.29-1.26-4.26-2.35-5.92-1.07-1.64-2.53-2.95-4.34-3.92-1.82-.96-4.03-1.45-6.65-1.45-3.57,0-6.87.92-9.89,2.73-3,1.83-5.39,4.36-7.15,7.6V0h-7.5v62.24h7.5v-26.85c.51-1.71,1.26-3.27,2.26-4.69.99-1.42,2.13-2.64,3.41-3.66,1.28-1.03,2.65-1.83,4.14-2.43,1.47-.6,2.95-.9,4.42-.9,3.08,0,5.4,1.12,7,3.36,1.58,2.26,2.38,5.67,2.38,10.28v24.89ZM28.57,8.53h20.88V1.71H0v6.82h20.89v53.71h7.68V8.53ZM126.96,63.09c-3.35,0-6.41-.62-9.21-1.83-2.8-1.22-5.18-2.87-7.17-4.99-1.99-2.1-3.54-4.56-4.64-7.38-1.11-2.81-1.66-5.78-1.66-8.91s.55-6.08,1.66-8.86c1.11-2.78,2.67-5.23,4.69-7.33s4.41-3.77,7.2-4.99c2.78-1.22,5.86-1.83,9.21-1.83s6.4.63,9.16,1.88c2.75,1.25,5.1,2.92,7.03,4.99,1.93,2.07,3.43,4.49,4.49,7.25,1.04,2.75,1.58,5.61,1.58,8.56,0,.63-.02,1.2-.05,1.71-.03.51-.06.92-.13,1.2h-36.92c.17,2.21.68,4.23,1.53,6.05.85,1.82,1.96,3.38,3.33,4.69,1.36,1.31,2.91,2.34,4.64,3.06,1.74.74,3.57,1.11,5.5,1.11,1.36,0,2.7-.19,4.01-.55,1.31-.36,2.53-.87,3.66-1.48,1.14-.63,2.13-1.39,3.02-2.31.88-.92,1.55-1.93,2.01-3.08l6.48,1.78c-.74,1.66-1.75,3.16-3.02,4.52-1.28,1.36-2.76,2.54-4.44,3.54-1.67.99-3.54,1.78-5.59,2.34-2.01.58-4.14.87-6.36.87ZM142.23,37c-.17-2.1-.7-4.04-1.58-5.84-.88-1.78-1.99-3.32-3.32-4.56-1.34-1.25-2.89-2.23-4.64-2.94-1.77-.71-3.63-1.06-5.62-1.06s-3.87.35-5.62,1.06c-1.77.71-3.32,1.71-4.64,2.98-1.34,1.28-2.42,2.8-3.24,4.56-.82,1.77-1.33,3.7-1.5,5.8h30.16ZM36.73,194.51c6.85,3.3,14.48,4.94,22.92,4.94s15.59-1.59,22.49-4.8c6.9-3.17,12.86-7.45,17.81-12.79,4.97-5.34,8.86-11.5,11.67-18.46,2.81-6.96,4.22-14.28,4.22-21.95,0-7.23-1.34-14.37-4.04-21.38-2.7-7.03-6.48-13.28-11.34-18.79-4.86-5.51-10.72-9.97-17.58-13.36-6.85-3.4-14.43-5.1-22.76-5.1s-15.59,1.59-22.51,4.79c-6.9,3.17-12.87,7.47-17.89,12.87-5.02,5.42-8.97,11.62-11.83,18.64-2.86,7.03-4.3,14.37-4.3,22.03s1.36,14.53,4.06,21.54c2.7,7.03,6.51,13.27,11.42,18.71,4.91,5.45,10.8,9.84,17.66,13.12ZM28.54,155.56c-1.5-4.64-2.26-9.44-2.26-14.42s.73-9.43,2.16-14.01c1.45-4.58,3.59-8.69,6.4-12.3,2.81-3.62,6.32-6.54,10.53-8.75,4.22-2.21,9.02-3.32,14.42-3.32s9.85,1.04,14.01,3.16c4.15,2.12,7.68,4.94,10.53,8.51,2.86,3.55,5.07,7.66,6.65,12.3,1.56,4.64,2.35,9.46,2.35,14.42s-.74,9.43-2.2,14.01c-1.45,4.6-3.62,8.73-6.48,12.4-2.86,3.66-6.38,6.62-10.53,8.83-4.15,2.21-8.94,3.32-14.34,3.32s-10.01-1.07-14.17-3.24c-4.17-2.16-7.68-5.02-10.53-8.59-2.84-3.57-5.04-7.68-6.55-12.32ZM177.4,132.55c-6.59.11-12.48,1.37-17.66,3.81-5.18,2.43-8.91,6.08-11.17,10.93v51.34h-21.7v-84.89h19.93v18.15c1.5-2.92,3.28-5.53,5.34-7.85,2.05-2.32,4.26-4.34,6.65-6.08,2.37-1.72,4.78-3.05,7.2-3.96,2.43-.92,4.79-1.37,7.06-1.37h2.67c.58,0,1.15.05,1.71.16v19.77h-.03ZM200.24,196.88c4.98,2.26,10.36,3.4,16.2,3.4s11.42-1.39,16.74-4.11c5.35-2.75,9.59-6.82,12.73-12.22l.49,5.34c.33,3.13,1.72,5.67,4.22,7.61,2.48,1.96,5.67,2.92,9.55,2.92,2.38,0,5.46-.38,9.24-1.14v-18.46c-1.83-.11-3.13-.66-3.88-1.63-.76-.98-1.14-2.61-1.14-4.86v-93.3h-21.7v48.28c-2.81-4.86-6.73-8.8-11.75-11.83-5.02-3.02-10.68-4.53-16.93-4.53-5.51,0-10.58,1.12-15.22,3.4-4.64,2.27-8.64,5.4-11.99,9.4-3.35,4-5.97,8.64-7.85,13.93-1.9,5.29-2.84,11.01-2.84,17.17s.99,11.91,3,17.25c1.99,5.34,4.77,10.01,8.34,14.01,3.55,4,7.82,7.14,12.79,9.4ZM228.43,180.74c-2.16.71-4.26,1.06-6.32,1.06-3.46,0-6.62-.65-9.46-1.97-2.86-1.3-5.32-3.06-7.38-5.34-2.04-2.27-3.66-4.91-4.85-7.94-1.2-3.02-1.78-6.3-1.78-9.87,0-3.33.52-6.59,1.61-9.71,1.07-3.13,2.59-5.91,4.53-8.34,1.94-2.43,4.3-4.34,7.04-5.75,2.75-1.39,5.75-2.1,8.99-2.1,2.15,0,4.34.43,6.55,1.29,2.21.87,4.31,2.04,6.32,3.49,1.99,1.45,3.77,3.19,5.34,5.18,1.56,1.99,2.78,4.19,3.65,6.55v20.25c-.76,2.05-1.86,3.95-3.32,5.67s-3.09,3.24-4.94,4.53c-1.83,1.29-3.82,2.31-5.99,3ZM281.72,101.94v-21.54h21.7v21.54h-21.7ZM281.72,198.64v-84.89h21.7v84.89h-21.7ZM376.16,198.64h21.67v-52.95c0-4.09-.35-8.15-1.06-12.14-.7-4-1.96-7.57-3.81-10.69-1.83-3.13-4.42-5.65-7.77-7.61-3.35-1.96-7.66-2.92-12.95-2.92-7.45,0-14.15,1.52-20.09,4.53-5.92,3.02-10.47,7.23-13.6,12.63v-15.71h-19.6v84.89h21.7v-49.57c.76-2.59,1.94-4.96,3.57-7.12,1.63-2.16,3.43-4.03,5.43-5.59,2.01-1.56,4.14-2.78,6.4-3.65,2.27-.87,4.49-1.3,6.65-1.3,4.22,0,7.5,1.56,9.89,4.69,2.38,3.14,3.57,8.1,3.57,14.91v47.62ZM435.92,200.27c-4.11,0-7.93-.68-11.5-2.02-3.57-1.34-6.65-3.24-9.24-5.67-2.59-2.43-4.63-5.26-6.08-8.51-1.45-3.24-2.2-6.81-2.2-10.69s.88-7.69,2.67-11.1c1.78-3.41,4.26-6.29,7.45-8.67,3.19-2.37,7-4.23,11.42-5.59,4.42-1.34,9.29-2.02,14.58-2.02,3.77,0,7.47.32,11.1.96,3.62.65,6.82,1.56,9.63,2.75v-4.86c0-5.61-1.6-9.93-4.77-12.97-3.19-3.02-7.91-4.53-14.18-4.53-4.53,0-8.97.81-13.28,2.43-4.33,1.63-8.75,4-13.28,7.14l-6.63-13.77c10.91-7.23,22.68-10.85,35.31-10.85s21.68,3,28.43,8.99c6.74,5.99,10.12,14.66,10.12,26v26.41c0,2.26.39,3.88,1.2,4.86.82.96,2.13,1.52,3.96,1.63v18.46c-3.66.76-6.85,1.14-9.55,1.14-4.11,0-7.26-.92-9.48-2.75-2.21-1.83-3.59-4.26-4.12-7.3l-.49-4.71c-3.79,4.97-8.37,8.75-13.77,11.34-5.37,2.62-11.15,3.92-17.31,3.92ZM442.08,184.38c3.66,0,7.15-.65,10.46-1.94,3.3-1.3,5.86-3.02,7.69-5.18,2.38-1.83,3.57-3.88,3.57-6.16v-9.71c-2.59-.96-5.4-1.75-8.42-2.35-3.03-.58-5.94-.88-8.75-.88-5.61,0-10.2,1.26-13.77,3.81-3.57,2.54-5.34,5.75-5.34,9.63,0,3.66,1.41,6.73,4.22,9.14,2.78,2.45,6.24,3.65,10.34,3.65ZM534.58,136.36c5.18-2.43,11.07-3.7,17.66-3.81h.03v-16.62l32.67,82.72c-1.07,3.57-2.1,6.52-3.08,8.91-.98,2.37-1.94,4.23-2.92,5.59-.96,1.36-2.05,2.29-3.24,2.84-1.18.54-2.48.81-3.88.81-1.2,0-2.65-.14-4.37-.41-1.72-.27-3.51-.68-5.34-1.22v18.78c1.94.65,3.81,1.11,5.59,1.37,1.78.27,3.54.41,5.26.41,7.34,0,13.5-1.9,18.46-5.67,4.97-3.78,8.48-8.64,10.53-14.58l35.63-101.72h-20.4l-20.42,66.09-22.99-66.09h-21.49v-.98c-.55-.11-1.12-.16-1.71-.16h-2.67c-2.27,0-4.63.46-7.06,1.37-2.42.92-4.83,2.24-7.2,3.96-2.38,1.74-4.6,3.76-6.65,6.08-2.05,2.32-3.84,4.93-5.34,7.85v-18.15h-19.93v84.89h21.7v-51.34c2.26-4.85,5.99-8.5,11.17-10.93ZM641.17,175.32v23.33h17.83v-23.33h-17.83Z"/></g></svg>