<svg class="w-31.75 h-3.5 md:w-41.25 md:h-4.5 xl:w-52.75 xl:h-5.75" viewBox="0 0 470.7 50.9" xmlns="http://www.w3.org/2000/svg"><title>Mac Cosmetics logo</title><path d="M179.5 18.2c0 2.4-3.8 4.3-8.6 4.3-4.7 0-8.6-1.9-8.6-4.3s3.8-4.3 8.6-4.3c4.7 0 8.6 2 8.6 4.3m120.3-4.3c-4.7 0-8.6 1.9-8.6 4.3s3.8 4.3 8.6 4.3 8.6-1.9 8.6-4.3c0-2.3-3.8-4.3-8.6-4.3m164.5 26.9H347.7c-13.7 0-24.7-6.9-24.7-15s11-15 24.7-15h116.6c3.6 0 6.5-2.2 6.5-4.8 0-2.7-2.9-4.8-6.5-4.8H347.7c-19.6 0-34.9 10.8-34.9 24.7 0 4.2 1.3 8.1 4.4 12.2L242.1 1.7C239.9.6 237.8 0 235.3 0s-4.5.6-6.8 1.7L151.4 39V5.4c0-2.7-3.6-4.8-8.1-4.8-3 0-4.8.8-4.8.8L63.3 33.2l6.5 2.7c2 .8 3.8 1.2 6 1.2s4-.4 6-1.2l60.1-25.5v37.2c0 1.8 2.2 3.2 4.8 3.2h.4c1.2 0 2.3-.3 3.2-.7L235.4 9l39.1 19h-72.6l-19.3 9.3h111.2l26.7 12.9c.9.4 2 .7 3.2.7 2.9 0 5.2-1.4 5.2-3.2 0-.2 0-.7-.5-1.3 5.1 2.3 11.6 4.1 19.3 4h116.6c3.6 0 6.5-2.2 6.5-4.8-.1-2.7-3-4.8-6.5-4.8m-391.4-14l-60-25.4S11 .6 8.1.6C3.6.5 0 2.7 0 5.4v42.4C0 49.6 2.2 51 4.8 51c2.7 0 4.8-1.4 4.8-3.2V10.5L60.4 32l12.5-5.2z"></path></svg>